<svg xmlns="http://www.w3.org/2000/svg" fill="url(#gradient)" width="24" height="24" viewBox="0 0 24 24">
<linearGradient spreadMethod="pad" id="gradient" x1="0%" y1="0%" x2="0%" y2="100%">
<stop offset="0%" style="stop-color:rgb(242, 24, 46);stop-opacity:1;" />
	<stop offset="100%" style="stop-color:rgb(189, 62, 195);stop-opacity:1;" />
</linearGradient>
<path d="M24 8h-24v7h24v-7zm-22 5l.863-3h1.275l-.863 3h-1.275zm2.066 0l.863-3h1.275l-.863 3h-1.275zm2.067 0l.863-3h1.275l-.864 3h-1.274zm2.066 0l.863-3h1.274l-.863 3h-1.274zm3.341 0h-1.274l.863-3h1.275l-.864 3zm9.46-.5c-.552 0-1-.448-1-1s.448-1 1-1c.553 0 1 .448 1 1s-.447 1-1 1zm3 4.5h-24v7h24v-7zm-22 5l.863-3h1.275l-.863 3h-1.275zm2.066 0l.863-3h1.275l-.863 3h-1.275zm2.067 0l.863-3h1.275l-.864 3h-1.274zm2.066 0l.863-3h1.274l-.863 3h-1.274zm3.341 0h-1.274l.863-3h1.275l-.864 3zm9.46-.5c-.552 0-1-.448-1-1s.448-1 1-1c.553 0 1 .448 1 1s-.447 1-1 1zm1-15.5h-20l4-6h12l4 6z"/>
</svg>