<?xml version="1.0" encoding="iso-8859-1"?>
<!-- Generator: Adobe Illustrator 19.0.0, SVG Export Plug-In . SVG Version: 6.00 Build 0)  -->
<svg fill="url(#gradient)" version="1.1" id="Layer_1" xmlns="http://www.w3.org/2000/svg" xmlns:xlink="http://www.w3.org/1999/xlink" x="0px" y="0px"
	 viewBox="0 0 491.52 491.52" style="enable-background:new 0 0 491.52 491.52;" xml:space="preserve">
<defs>
<linearGradient spreadMethod="pad" id="gradient" x1="0%" y1="0%" x2="0%" y2="100%">
<stop offset="0%" style="stop-color:rgb(242, 24, 46);stop-opacity:1;" />
	<stop offset="100%" style="stop-color:rgb(189, 62, 195);stop-opacity:1;" />
</linearGradient>
</defs>
<g>
	<g>
		<path d="M245.76,90.38c-37.68,0-68.34,30.655-68.34,68.34s30.66,68.34,68.34,68.34s68.34-30.655,68.34-68.34
			S283.44,90.38,245.76,90.38z M245.76,206.58c-26.39,0-47.86-21.47-47.86-47.86c0-26.39,21.47-47.86,47.86-47.86
			s47.86,21.47,47.86,47.86C293.62,185.11,272.15,206.58,245.76,206.58z"/>
	</g>
</g>
<g>
	<g>
		<path d="M460.8,295.506c17.618-4.579,30.72-20.477,30.72-39.506c0-19.029-13.102-34.927-30.72-39.506V51.2h-98.09l-24.54-24.54
			l-30.6,21.85c-8.75-4.93-17.99-8.765-27.59-11.465L273.8,0h-56.08l-6.18,37.045c-9.6,2.7-18.84,6.535-27.59,11.465l-30.6-21.85
			L128.81,51.2H30.72v165.294C13.102,221.073,0,236.971,0,256s13.102,34.927,30.72,39.506V409.6H0v81.92h81.92V460.8H204.8v30.72
			h81.92V460.8H409.6v30.72h81.92V409.6H460.8V295.506z M471.04,256c0,11.295-9.19,20.48-20.48,20.48
			c-11.29,0-20.48-9.185-20.48-20.48s9.19-20.48,20.48-20.48C461.85,235.52,471.04,244.705,471.04,256z M155.57,53.41l27.57,19.68
			l5.82-3.715c10.46-6.66,21.83-11.385,33.8-14.04l6.74-1.495l5.56-33.36h21.4l5.56,33.36l6.74,1.495
			c11.97,2.655,23.34,7.38,33.8,14.04l5.82,3.715l27.57-19.68l15.13,15.12l-19.69,27.555l3.71,5.83
			c6.66,10.455,11.39,21.83,14.04,33.805l1.5,6.745l33.36,5.56v21.385l-33.36,5.56l-1.5,6.75c-2.65,11.97-7.38,23.34-14.04,33.8
			l-3.71,5.83l19.69,27.56l-15.13,15.12l-27.56-19.685l-5.83,3.715c-10.46,6.66-21.83,11.385-33.8,14.04l-6.74,1.495l-5.56,33.365
			h-21.4l-5.56-33.365l-6.74-1.495c-11.97-2.655-23.34-7.38-33.8-14.04l-5.83-3.715l-27.56,19.685l-15.13-15.12l19.69-27.56
			l-3.71-5.83c-6.66-10.46-11.39-21.83-14.04-33.8l-1.5-6.75l-33.36-5.56v-21.385l33.36-5.56l1.5-6.745
			c2.65-11.975,7.38-23.35,14.04-33.805l3.71-5.83L140.44,68.53L155.57,53.41z M20.48,256c0-11.295,9.19-20.48,20.48-20.48
			c11.29,0,20.48,9.185,20.48,20.48s-9.19,20.48-20.48,20.48C29.67,276.48,20.48,267.295,20.48,256z M61.44,471.04H20.48v-40.96
			h40.96V471.04z M204.8,440.32H81.92V409.6H51.2V295.506c17.618-4.579,30.72-20.477,30.72-39.506
			c0-19.029-13.102-34.927-30.72-39.506V71.68h66.334l18.016,25.23c-4.92,8.75-8.76,17.985-11.46,27.59l-37.05,6.175v56.085
			l37.05,6.175c2.7,9.605,6.53,18.84,11.46,27.59L113.7,251.12l39.65,39.66l30.6-21.855c8.75,4.93,17.99,8.765,27.59,11.465
			l6.18,37.05h17.8v92.16H204.8V440.32z M266.24,471.04h-40.96v-40.96h40.96V471.04z M409.6,440.32H286.72V409.6H256v-92.16h17.8
			l6.18-37.05c9.6-2.7,18.84-6.535,27.59-11.465l30.6,21.855l39.65-39.66l-21.85-30.595c4.93-8.75,8.76-17.985,11.46-27.59
			l37.05-6.175v-56.085l-37.05-6.175c-2.7-9.605-6.54-18.84-11.46-27.59l18.016-25.23h66.334v144.814
			c-17.618,4.579-30.72,20.477-30.72,39.506c0,19.029,13.102,34.927,30.72,39.506V409.6H409.6V440.32z M471.04,430.08v40.96h-40.96
			v-40.96H471.04z"/>
	</g>
</g>
<g>
</g>
<g>
</g>
<g>
</g>
<g>
</g>
<g>
</g>
<g>
</g>
<g>
</g>
<g>
</g>
<g>
</g>
<g>
</g>
<g>
</g>
<g>
</g>
<g>
</g>
<g>
</g>
<g>
</g>
</svg>
